<?xml version="1.0" encoding="utf-8"?>
<!-- Generator: Adobe Illustrator 22.1.0, SVG Export Plug-In . SVG Version: 6.00 Build 0)  -->
<svg version="1.1" id="图层_1" xmlns="http://www.w3.org/2000/svg" xmlns:xlink="http://www.w3.org/1999/xlink" x="0px" y="0px"
	 viewBox="0 0 260.5 105.1" style="enable-background:new 0 0 260.5 105.1;" xml:space="preserve">
<style type="text/css">
	.st0{font-family:'ArialMT';}
	.st1{font-size:68.4923px;}
</style>
<text transform="matrix(1 0 0 1 55.0542 87.343)" class="st0 st1">ANG</text>
<g>
	<path d="M16.4,95.5c16.1-0.8,17.2-3.5,17.2-15.7V11.1h-2c-21,0-23.1,3.5-28,20.4H1.1c1-9.5,1.4-19.1,1.8-28.1h2.6
		C6.6,5.3,7.7,6.2,9,6.7s2.9,0.5,5.1,0.5h56.7c4.2,0,5.3-0.8,7.6-3.9l2.7,0.2c-0.3,7.6,0.6,17.7,1.4,27.3l-2.7,0.6
		C75.9,13.2,69.8,11,56.2,11H42v68.7c0,12.1,1.1,14.9,17.5,15.7c0.1,0,197.6,0,197.7,0v5.2H59.5H16.4V95.5z"/>
</g>
</svg>
